<?xml version="1.0" encoding="utf-8"?>
<!-- Generator: Adobe Illustrator 28.1.0, SVG Export Plug-In . SVG Version: 6.00 Build 0)  -->
<svg version="1.1" id="Layer_1" xmlns="http://www.w3.org/2000/svg" xmlns:xlink="http://www.w3.org/1999/xlink" x="0px" y="0px"
	 viewBox="0 0 1080 1080" style="enable-background:new 0 0 1080 1080;" xml:space="preserve">
<style type="text/css">
	.st0{display:none;fill-rule:evenodd;clip-rule:evenodd;fill:#962D77;}
	.st1{display:none;fill:url(#SVGID_1_);}
	.st2{display:none;fill-rule:evenodd;clip-rule:evenodd;fill:url(#SVGID_00000180365224804874360970000013964188798641023899_);}
	.st3{fill-rule:evenodd;clip-rule:evenodd;fill:#962D77;}
	
		.st4{clip-path:url(#SVGID_00000029023973476878124910000005544245059436537241_);fill:url(#SVGID_00000042738045894213557610000010503059526873597850_);}
	
		.st5{clip-path:url(#SVGID_00000093899953655752501030000003039865342411329444_);fill:url(#SVGID_00000137132975846630290240000012213472838857589127_);}
	.st6{fill:#FFFFFF;}
	
		.st7{clip-path:url(#SVGID_00000014623296235155601980000009177286249507080335_);fill:url(#SVGID_00000012450863358812310710000007839129703621213111_);}
	
		.st8{clip-path:url(#SVGID_00000129899255137634922150000009590355418630010294_);fill:url(#SVGID_00000169548527820312449820000011678960682716252813_);}
</style>
<g>
	<g>
		<path class="st3" d="M47.04,598.25v0.09v0.09h0c0.03,12.84,2.91,25.65,8.64,32.25c14.9,17.14,46.84,10.49,64.56,8.21
			c116.79-15.07,97.51,21.73,110.79,21.73h617.94c13.28,0-6-36.8,110.79-21.73c17.73,2.29,49.66,8.94,64.56-8.21
			c5.74-6.6,8.62-19.41,8.64-32.25h0v-0.09v-0.09h0c-0.03-12.84-2.91-25.65-8.64-32.25c-14.9-17.14-46.84-10.49-64.56-8.2
			c-116.79,15.07-97.51-21.73-110.79-21.73H231.03c-13.28,0,6,36.8-110.79,21.73c-17.73-2.29-49.66-8.94-64.56,8.2
			C49.94,572.6,47.06,585.41,47.04,598.25L47.04,598.25z"/>
		<g>
			<defs>
				<path id="SVGID_00000158031163379744786770000014184529559002002587_" d="M261.5,551.62c-5.88,0-8.41,0.42-11.21,1.53
					c-3.64,1.53-5.88,5.14-5.88,9.02c0,4.03,2.38,7.78,6.02,9.16c2.52,1.11,4.62,1.39,11.21,1.39h9.25v51.09
					c0,10.83,0.14,11.8,1.82,15.27c1.68,3.75,6.59,6.53,11.35,6.53c4.76,0,9.67-2.78,11.35-6.53c1.68-3.47,1.82-4.58,1.82-15.27
					v-51.09h9.25c6.58,0,8.69-0.28,11.21-1.39c3.64-1.39,6.02-5.14,6.02-9.16c0-4.02-2.38-7.63-5.88-9.02
					c-2.66-1.11-5.46-1.53-11.21-1.53H261.5z M358.44,572.31h10.65c5.6,0,8.26,0.28,10.79,1.39c3.08,1.25,5.04,4.31,5.04,7.91
					c0,4.03-2.1,7.08-5.74,8.33c-2.38,0.97-4.48,1.11-10.37,1.11h-10.37V572.31z M347.93,551.62c-9.11,0-11.63,0.69-13.73,3.61
					c-2.24,2.78-2.66,5.28-2.66,14.72v53.45c0,11.11,0.14,12.08,1.82,15.55c1.82,3.75,6.86,6.67,11.63,6.67
					c4.76,0,9.81-2.92,11.63-6.67c1.68-3.47,1.82-4.58,1.82-15.55v-11.94h6.86c5.04,0,8.41,0.28,10.23,0.97
					c3.92,1.25,6.72,4.86,7.57,9.44c2.1,12.22,2.1,12.22,4.34,16.24c2.8,4.86,7.42,7.5,12.89,7.5c7.42,0,13.73-5,13.73-10.83
					c0-1.11-0.28-2.36-0.7-3.33c-0.84-1.53-1.4-2.92-2.1-4.44l-0.56-2.36c-1.96-17.22-5.6-22.91-15.97-25.27
					c10.93-3.33,16.25-10.69,16.25-22.49c0-9.02-4.06-16.66-11.21-20.55c-6.3-3.61-12.75-4.72-25.92-4.72H347.93z M721.42,551.62
					c-11.49,0-14.43,3.33-18.21,20.27l-10.65,48.32l-10.65-48.32c-3.78-17.08-6.72-20.27-19.33-20.27h-10.79
					c-6.59,0-9.81,1.25-12.05,4.44c-1.96,3.19-2.38,5.42-2.38,14.58v54.15c0,10.27,0.14,11.25,1.68,14.58
					c1.68,3.61,6.44,6.25,10.93,6.25c4.48,0,9.25-2.64,10.93-6.25c1.54-3.33,1.68-4.3,1.68-14.58V573.7l10.79,46.51
					c4.62,19.58,8.83,25.41,18.63,25.41c10.09,0,13.87-5,18.49-24.71l10.93-46.51v50.68c0,10.28,0.14,11.11,1.68,14.44
					c1.68,3.47,6.3,6.11,10.79,6.11c4.34,0,8.97-2.64,10.65-6.11c1.54-3.33,1.68-4.3,1.68-14.44v-54.43
					c0-8.05-0.42-10.69-1.96-13.47c-2.1-3.61-6.3-5.55-11.91-5.55H721.42z M780.4,551.62c-10.93,0-12.75,0.42-15.55,3.19
					c-2.94,3.05-3.36,4.72-3.36,15.55v53.04c0,10.97,0.14,11.94,1.82,15.55c1.82,3.75,6.86,6.67,11.63,6.67
					c4.76,0,9.81-2.92,11.63-6.67c1.68-3.47,1.82-4.58,1.82-15.55v-15.83h28.44c5.74,0,7.71-0.42,9.95-2.08
					c2.38-1.8,4.06-5,4.06-8.19c0-6.39-4.9-9.86-14.29-9.86h-28.16v-15.13h31.66c7,0,8.54-0.28,10.93-1.81
					c2.94-1.8,4.62-5,4.62-8.47c0-3.33-1.68-6.53-4.2-8.19c-2.52-1.8-4.9-2.22-11.35-2.22H780.4z M426.24,556.9
					c-1.68,3.47-1.82,4.58-1.82,15.55v50.95c0,10.97,0.14,12.08,1.82,15.55c1.82,3.75,6.86,6.67,11.63,6.67
					c4.76,0,9.8-2.92,11.63-6.67c1.68-3.47,1.82-4.58,1.82-15.55v-50.95c0-11.11-0.14-12.08-1.82-15.55
					c-1.82-3.75-6.86-6.66-11.63-6.66C433.11,550.24,428.07,553.15,426.24,556.9 M500.35,556.9c-1.68,3.47-1.82,4.58-1.82,15.41
					v42.62c0,3.33-0.28,6.11-0.7,7.5c-0.84,2.36-3.36,4.03-6.16,4.03c-2.1,0-3.92-0.69-5.46-2.22c-1.4-1.25-1.54-1.94-2.66-7.08
					c-1.26-5.97-5.6-9.44-11.91-9.44c-7.43,0-12.33,5.27-12.33,13.19c0,8.33,4.62,16.52,11.49,20.55
					c5.33,3.19,13.03,4.86,21.57,4.86c14.01,0,24.66-5.28,29.28-14.3c2.94-5.69,3.64-10.14,3.64-23.88v-35.82
					c0-10.97-0.14-11.94-1.82-15.41c-1.68-3.75-6.72-6.66-11.49-6.66C507.08,550.24,502.17,553.15,500.35,556.9 M596.88,556.9
					c-1.68,3.47-1.82,4.72-1.82,15.55v34.43c0,8.75-0.42,11.11-2.24,13.88c-2.24,3.33-6.16,5.14-11.21,5.14
					c-5.04,0-9.39-1.94-11.63-5.14c-1.96-2.64-2.38-5-2.38-13.88v-34.43c0-10.97-0.14-11.94-1.82-15.55
					c-1.82-3.75-6.72-6.66-11.63-6.66c-4.9,0-9.81,2.91-11.63,6.66c-1.68,3.47-1.82,4.72-1.82,15.55v36.65
					c0,14.44,3.08,23.05,10.51,28.74c7.28,5.55,18.07,8.61,30.12,8.61c12.05,0,23.11-3.19,30.12-8.61
					c7-5.69,10.51-15.13,10.51-28.74v-36.65c0-10.97-0.14-11.94-1.82-15.55c-1.82-3.75-6.72-6.66-11.63-6.66
					C603.6,550.24,598.7,553.15,596.88,556.9"/>
			</defs>
			<clipPath id="SVGID_00000002346959072728683090000004005653120483903389_">
				<use xlink:href="#SVGID_00000158031163379744786770000014184529559002002587_"  style="overflow:visible;"/>
			</clipPath>
			
				<linearGradient id="SVGID_1_" gradientUnits="userSpaceOnUse" x1="-1205.4309" y1="1079.9758" x2="-1204.4382" y2="1079.9758" gradientTransform="matrix(595.5283 0 0 -595.5283 718112.625 643754.5)">
				<stop  offset="0" style="stop-color:#D59B29"/>
				<stop  offset="0" style="stop-color:#AD732A"/>
				<stop  offset="0.3198" style="stop-color:#FAF291"/>
				<stop  offset="0.6802" style="stop-color:#FEE45C"/>
				<stop  offset="1" style="stop-color:#FEEF7D"/>
			</linearGradient>
			
				<rect x="244.41" y="550.24" style="clip-path:url(#SVGID_00000002346959072728683090000004005653120483903389_);fill:url(#SVGID_1_);" width="591.19" height="96.22"/>
		</g>
		<g>
			<defs>
				<path id="SVGID_00000106119111298761246640000014350706529256983685_" d="M525.81,338.17c0,7.17,5.33,13.09,12.24,14.05
					c-12.84,50.19-25.82,79.28-44.04,78.19c-21.43-1.29-30.33-14.86-38.61-32.64c5.84-1.76,10.09-7.18,10.09-13.59
					c0-7.84-6.36-14.19-14.19-14.19c-7.84,0-14.19,6.36-14.19,14.19c0,7.84,6.35,14.2,14.19,14.2c0.2,0,0.39-0.02,0.59-0.03
					c0.07,14.37-3.31,27.49-7,34.2c-10.6,19.25-19.57,14.88-32.95,3.83c-11.42-10.85-22.39-20.62-33.64-31.05
					c3-2.6,4.91-6.43,4.91-10.72c0-7.84-6.36-14.19-14.19-14.19c-7.84,0-14.19,6.36-14.19,14.19c0,7.84,6.36,14.2,14.19,14.2
					c2.09,0,4.07-0.46,5.85-1.27c14.84,31.62,28.57,64.42,35,104.93c39.13-7.64,83.33-11.94,130.14-11.94
					c46.81,0,91.01,4.31,130.14,11.94c6.42-40.51,20.16-73.31,35-104.93c1.79,0.81,3.76,1.27,5.85,1.27
					c7.84,0,14.19-6.36,14.19-14.2c0-7.84-6.36-14.19-14.19-14.19c-7.84,0-14.19,6.36-14.19,14.19c0,4.29,1.91,8.12,4.91,10.72
					c-11.25,10.43-22.22,20.2-33.64,31.05c-13.38,11.06-22.35,15.42-32.95-3.83c-3.7-6.71-7.07-19.83-7-34.2
					c0.2,0.01,0.39,0.03,0.58,0.03c7.84,0,14.19-6.36,14.19-14.2c0-7.84-6.36-14.19-14.19-14.19s-14.19,6.36-14.19,14.19
					c0,6.41,4.25,11.83,10.09,13.59c-8.27,17.78-17.17,31.36-38.61,32.64c-18.22,1.09-31.2-28-44.04-78.19
					c6.91-0.95,12.24-6.87,12.24-14.05c0-7.84-6.35-14.19-14.19-14.19C532.16,323.97,525.81,330.33,525.81,338.17"/>
			</defs>
			<clipPath id="SVGID_00000052072874781284700470000004444558182246325925_">
				<use xlink:href="#SVGID_00000106119111298761246640000014350706529256983685_"  style="overflow:visible;"/>
			</clipPath>
			
				<linearGradient id="SVGID_00000098188999425359939270000008799481372882599044_" gradientUnits="userSpaceOnUse" x1="-1204.2153" y1="1079.9598" x2="-1203.2227" y2="1079.9598" gradientTransform="matrix(373.0858 0 0 -373.0858 449630.4375 403335.9062)">
				<stop  offset="0" style="stop-color:#D59B29"/>
				<stop  offset="0" style="stop-color:#AD732A"/>
				<stop  offset="0.3198" style="stop-color:#FAF291"/>
				<stop  offset="0.6802" style="stop-color:#FEE45C"/>
				<stop  offset="1" style="stop-color:#FEEF7D"/>
			</linearGradient>
			
				<rect x="354.82" y="323.97" style="clip-path:url(#SVGID_00000052072874781284700470000004444558182246325925_);fill:url(#SVGID_00000098188999425359939270000008799481372882599044_);" width="370.37" height="188.48"/>
		</g>
	</g>
	<g>
		<path class="st6" d="M351.83,724.32c-0.93,0-1.8-0.23-2.61-0.7c-0.81-0.46-1.45-1.09-1.91-1.88c-0.46-0.79-0.7-1.71-0.7-2.78
			c0-0.97,0.23-1.85,0.7-2.64c0.46-0.79,1.1-1.41,1.91-1.88c0.81-0.46,1.68-0.7,2.61-0.7c0.93,0,1.78,0.23,2.57,0.7
			c0.79,0.46,1.42,1.09,1.91,1.88c0.49,0.79,0.73,1.67,0.73,2.64c0,1.07-0.24,1.99-0.73,2.78c-0.49,0.79-1.12,1.42-1.91,1.88
			C353.61,724.09,352.76,724.32,351.83,724.32z"/>
		<path class="st6" d="M415.52,738.44c-3.62,0-7.08-0.59-10.39-1.77c-3.31-1.18-5.88-2.7-7.68-4.55l2.02-3.96
			c1.71,1.67,4.02,3.07,6.92,4.21s5.95,1.7,9.14,1.7c3.06,0,5.55-0.38,7.47-1.15c1.92-0.76,3.34-1.8,4.24-3.09
			c0.9-1.3,1.36-2.73,1.36-4.31c0-1.9-0.54-3.43-1.63-4.59c-1.09-1.16-2.51-2.07-4.28-2.75c-1.76-0.67-3.71-1.26-5.84-1.77
			c-2.13-0.51-4.26-1.05-6.4-1.63c-2.13-0.58-4.09-1.36-5.88-2.33c-1.78-0.97-3.22-2.26-4.31-3.86c-1.09-1.6-1.63-3.7-1.63-6.29
			c0-2.41,0.64-4.62,1.91-6.64c1.27-2.02,3.23-3.64,5.88-4.87c2.64-1.23,6.03-1.84,10.15-1.84c2.73,0,5.45,0.38,8.13,1.15
			c2.69,0.76,5.01,1.82,6.95,3.16l-1.74,4.1c-2.09-1.39-4.3-2.41-6.64-3.06c-2.34-0.65-4.6-0.97-6.78-0.97
			c-2.92,0-5.33,0.39-7.23,1.18c-1.9,0.79-3.3,1.84-4.21,3.16c-0.9,1.32-1.36,2.82-1.36,4.48c0,1.9,0.54,3.43,1.63,4.59
			c1.09,1.16,2.53,2.06,4.31,2.71c1.78,0.65,3.74,1.23,5.88,1.74c2.13,0.51,4.25,1.07,6.36,1.67c2.11,0.6,4.06,1.38,5.84,2.33
			c1.78,0.95,3.22,2.21,4.31,3.79c1.09,1.58,1.63,3.64,1.63,6.19c0,2.36-0.65,4.55-1.95,6.57c-1.3,2.02-3.28,3.64-5.94,4.87
			C423.11,737.82,419.69,738.44,415.52,738.44z"/>
		<path class="st6" d="M460.57,738.02V693.8h-17.1v-4.45h39.35v4.45h-17.1v44.22H460.57z"/>
		<path class="st6" d="M487.75,738.02L510,689.35h5.08l22.25,48.67h-5.42l-20.44-45.68h2.08l-20.44,45.68H487.75z M496.51,725.02
			l1.53-4.17h28.3l1.53,4.17H496.51z"/>
		<path class="st6" d="M552.34,738.02v-48.67h4.24l33.58,42.27h-2.22v-42.27h5.08v48.67h-4.24l-33.51-42.27h2.23v42.27H552.34z"/>
		<path class="st6" d="M615.82,738.02v-48.67h5.15v48.67H615.82z"/>
		<path class="st6" d="M664.91,738.44c-3.66,0-7.05-0.61-10.15-1.84c-3.11-1.23-5.79-2.96-8.07-5.18c-2.27-2.22-4.04-4.84-5.32-7.86
			c-1.28-3.01-1.91-6.3-1.91-9.87s0.64-6.86,1.91-9.87c1.27-3.01,3.06-5.63,5.35-7.86s4.99-3.95,8.1-5.18
			c3.11-1.23,6.49-1.84,10.15-1.84c3.52,0,6.84,0.59,9.94,1.77c3.1,1.18,5.72,2.96,7.86,5.32l-3.27,3.27
			c-1.99-2.04-4.2-3.51-6.6-4.41c-2.41-0.9-5.01-1.36-7.79-1.36c-2.92,0-5.63,0.5-8.13,1.5c-2.5,1-4.68,2.41-6.54,4.24
			c-1.85,1.83-3.3,3.96-4.35,6.4s-1.56,5.11-1.56,8.03s0.52,5.6,1.56,8.03s2.49,4.57,4.35,6.4c1.85,1.83,4.03,3.25,6.54,4.24
			c2.5,1,5.21,1.49,8.13,1.49c2.78,0,5.38-0.46,7.79-1.39c2.41-0.93,4.61-2.41,6.6-4.45l3.27,3.27c-2.13,2.36-4.75,4.15-7.86,5.35
			C671.81,737.83,668.47,738.44,664.91,738.44z M659.83,685.39l9.53-8.62h6.61l-11.26,8.62H659.83z"/>
		<path class="st6" d="M728.24,724.32c-0.93,0-1.8-0.23-2.61-0.7c-0.81-0.46-1.45-1.09-1.91-1.88c-0.46-0.79-0.7-1.71-0.7-2.78
			c0-0.97,0.23-1.85,0.7-2.64c0.46-0.79,1.1-1.41,1.91-1.88c0.81-0.46,1.68-0.7,2.61-0.7c0.93,0,1.78,0.23,2.57,0.7
			c0.79,0.46,1.43,1.09,1.91,1.88c0.49,0.79,0.73,1.67,0.73,2.64c0,1.07-0.24,1.99-0.73,2.78c-0.49,0.79-1.12,1.42-1.91,1.88
			C730.03,724.09,729.17,724.32,728.24,724.32z"/>
	</g>
</g>
</svg>
