<?xml version="1.0" encoding="UTF-8"?>
<svg version="1.1" xmlns="http://www.w3.org/2000/svg" width="1922" height="28">
<path d="M0 0 C634.26 0 1268.52 0 1922 0 C1922 8.25 1922 16.5 1922 25 C1914.4286884 28.7856558 1907.33235463 29.68845871 1899.11328125 27.0859375 C1892.00032524 23.70918963 1886.62317108 19.00466778 1881.625 13 C1876.8127512 7.32764338 1870.58796955 2.41763052 1862.99609375 1.7265625 C1861.82175781 1.69304688 1860.64742187 1.65953125 1859.4375 1.625 C1858.28121094 1.57601562 1857.12492187 1.52703125 1855.93359375 1.4765625 C1846.40783794 2.74414073 1840.26013892 8.1036681 1834 15 C1827.76645594 21.86703431 1821.67576384 26.91340992 1812.34765625 28.69921875 C1799.95855876 28.65502459 1793.38505685 24.54396112 1784.77880859 16.00195312 C1783.36345267 14.56317372 1781.95967746 13.11289226 1780.56884766 11.65039062 C1773.90167456 4.64067476 1769.11253722 1.90568289 1759.375 1.625 C1751.72817567 1.74349418 1746.14397338 2.93865401 1740.55517578 8.41601562 C1738.45383619 10.6273836 1736.41787793 12.88919758 1734.40771484 15.18359375 C1730.43290564 19.69087009 1726.31016691 23.12009093 1721 26 C1720.39414063 26.36867188 1719.78828125 26.73734375 1719.1640625 27.1171875 C1713.44145008 29.45168282 1705.95257885 28.9035214 1700.140625 27.125 C1692.59833541 23.56466454 1686.79796077 18.22537736 1681.5 11.875 C1677.49198569 7.14076292 1672.886997 3.96233233 1667 2 C1664.79597554 1.82719088 1662.58531536 1.73324727 1660.375 1.6875 C1659.20710938 1.65011719 1658.03921875 1.61273438 1656.8359375 1.57421875 C1647.55565999 2.60431065 1642.2450548 7.18467779 1636.125 13.875 C1628.23037197 22.0579408 1621.83957585 28.08225819 1610 28.75 C1598.1111955 28.14065015 1590.93588505 21.4951998 1583.01953125 13.390625 C1581 11 1581 11 1581 9 C1580.46375 8.7525 1579.9275 8.505 1579.375 8.25 C1577 7 1577 7 1574 4.9375 C1567.66540144 0.8464051 1560.33043686 1.3105427 1553 2 C1544.50808549 4.5555964 1538.92892944 10.22322257 1533.625 17.0625 C1530.22477185 20.86751721 1526.36794247 23.40580161 1522 26 C1521.38511719 26.37769531 1520.77023437 26.75539063 1520.13671875 27.14453125 C1514.41751539 29.43430371 1506.98492619 28.88763365 1501.17578125 27.16015625 C1493.49154666 23.57739695 1487.23208769 17.86294677 1481.9375 11.3125 C1478.23232824 6.78970654 1473.52297131 3.84099044 1468 2 C1465.79597554 1.82719088 1463.58531536 1.73324727 1461.375 1.6875 C1460.20710938 1.65011719 1459.03921875 1.61273438 1457.8359375 1.57421875 C1448.55565999 2.60431065 1443.2450548 7.18467779 1437.125 13.875 C1429.23037197 22.0579408 1422.83957585 28.08225819 1411 28.75 C1398.24770882 28.03078184 1391.14955423 20.73421791 1382.92041016 11.73828125 C1377.49516926 5.94622867 1372.31849831 2.68137351 1364.41015625 1.43359375 C1354.40298747 1.44527073 1347.45990627 3.41479009 1340.1875 10.4375 C1338.19288567 12.57557847 1336.42164678 14.74577126 1334.625 17.0625 C1329.46315119 22.83885462 1322.63079081 27.3467174 1314.87109375 28.44140625 C1304.42802353 28.80970565 1297.77960585 25.92966381 1289.875 19.1875 C1287.17231573 16.57801174 1284.8748752 13.83958358 1282.5625 10.875 C1278.16591679 5.94224811 1272.66361072 2.28724968 1265.9609375 1.76171875 C1264.77757812 1.73722656 1263.59421875 1.71273437 1262.375 1.6875 C1261.20710938 1.65011719 1260.03921875 1.61273438 1258.8359375 1.57421875 C1249.55565999 2.60431065 1244.2450548 7.18467779 1238.125 13.875 C1230.23037197 22.0579408 1223.83957585 28.08225819 1212 28.75 C1199.24770882 28.03078184 1192.14955423 20.73421791 1183.92041016 11.73828125 C1178.49516926 5.94622867 1173.31849831 2.68137351 1165.41015625 1.43359375 C1154.95106497 1.44579806 1148.18606147 3.62711275 1140.6875 11 C1139.44670755 12.32252129 1138.21616959 13.65480113 1137 15 C1131.04405557 21.25374165 1124.64897157 27.3518692 1115.765625 28.37109375 C1103.71903688 28.59864041 1097.74596991 25.03533309 1089.0546875 17.05078125 C1087.21267978 15.21227544 1085.56898474 13.33642296 1083.9375 11.3125 C1080.23232824 6.78970654 1075.52297131 3.84099044 1070 2 C1060.39504897 1.36536537 1052.9342734 1.475519 1044.9375 7.1875 C1041.93812741 9.87882892 1039.40226629 12.95961426 1036.78125 16.01171875 C1031.24583669 22.19050246 1025.15753439 27.27744687 1016.765625 28.453125 C1008.01939872 28.87324941 1001.86743261 27.48315955 995 22 C991.5206835 18.69555071 988.15915751 15.27881545 984.92041016 11.73828125 C979.54340957 5.99773061 974.36393385 2.37620119 966.375 1.6875 C964.704375 1.8421875 964.704375 1.8421875 963 2 C961.88625 2.0825 960.7725 2.165 959.625 2.25 C950.23210306 4.19335799 944.80965819 8.55858302 938.375 15.5 C926.29252207 28.39235417 926.29252207 28.39235417 915.83081055 28.75952148 C914.55330933 28.75480835 914.55330933 28.75480835 913.25 28.75 C912.36546143 28.74750244 911.48092285 28.74500488 910.56958008 28.74243164 C902.48267769 28.44473148 897.68161556 25.77276447 892 20 C890.99259766 19.05253906 890.99259766 19.05253906 889.96484375 18.0859375 C888.25290215 16.43578572 886.61795435 14.7417556 885 13 C878.5314318 6.21589189 873.38365585 2.87484746 863.9375 2.625 C856.16107629 2.6370853 850.26830635 3.80485625 844.57568359 9.39990234 C843.02254431 11.03486555 841.50540072 12.69599967 840 14.375 C827.61416751 28.16465079 827.61416751 28.16465079 816.62329102 28.76928711 C809.00897832 28.89179719 802.62627236 28.7378685 796.60546875 23.5703125 C796.07566406 23.05210938 795.54585937 22.53390625 795 22 C794.13375 21.38125 793.2675 20.7625 792.375 20.125 C790.20657091 18.1848266 788.39346371 16.20226895 786.5 14 C781.09228522 7.71819339 775.91833011 3.45509632 767.49609375 2.67578125 C758.84270426 2.42657738 752.64987391 2.93993812 745.99829102 8.74780273 C743.94690379 10.76710963 741.96415162 12.83332586 740 14.9375 C727.84326395 27.88964749 727.84326395 27.88964749 719.1953125 28.734375 C717.50572699 28.7765652 715.81483056 28.78085275 714.125 28.75 C713.24166992 28.7396875 712.35833984 28.729375 711.44824219 28.71875 C703.93085145 28.40772386 699.32218701 26.41412498 694 21 C693.27683594 20.31679688 692.55367187 19.63359375 691.80859375 18.9296875 C689.81611227 16.99958573 687.89844033 15.02215891 686 13 C679.52984344 6.22174074 674.38639595 2.87491993 664.9375 2.625 C657.13370528 2.63712783 651.25158987 3.81967379 645.54345703 9.43212891 C643.42419278 11.66028019 641.36838324 13.9370985 639.34155273 16.24951172 C635.61001583 20.48406101 632.09954246 23.45022877 627 26 C626.34 26 625.68 26 625 26 C625 26.66 625 27.32 625 28 C618.07 28 611.14 28 604 28 C604 27.34 604 26.68 604 26 C603.43796875 25.9071875 602.8759375 25.814375 602.296875 25.71875 C595.70552784 23.65615157 590.27746285 17.50283602 586 12.3125 C580.9447962 6.50353818 576.031356 3.47779034 568.30859375 2.5625 C559.78917537 2.2917737 553.53176181 3.04562067 546.99755859 8.74731445 C544.94688758 10.76715773 542.9640619 12.83342197 541 14.9375 C528.84326395 27.88964749 528.84326395 27.88964749 520.1953125 28.734375 C518.5057526 28.77757866 516.81481303 28.78179842 515.125 28.75 C513.793479 28.72800537 513.793479 28.72800537 512.43505859 28.70556641 C504.79089267 28.36098119 500.40425611 26.51757116 495 21 C493.24218104 19.23112888 491.48330009 17.46331931 489.72412109 15.69580078 C488.52272014 14.47219278 487.33701243 13.23290354 486.17041016 11.97607422 C481.2262049 6.76430359 476.48032039 3.5312068 469.2890625 2.43359375 C460.32220411 2.4431533 453.18617247 2.95655044 446.52734375 9.43212891 C444.40994542 11.63111872 442.35235913 13.8664274 440.37231445 16.19018555 C436.93835361 20.20229816 433.48489688 23.17520009 429 26 C428.01 26 427.02 26 426 26 C426 26.66 426 27.32 426 28 C419.07 28 412.14 28 405 28 C405 27.34 405 26.68 405 26 C404.42636719 25.89558594 403.85273438 25.79117187 403.26171875 25.68359375 C396.75938294 23.71829363 391.80308914 17.90506053 387.5625 12.875 C382.21187416 6.83367375 377.43716064 3.52174241 369.3125 2.56640625 C360.79210334 2.28746469 354.53193139 3.04547269 347.99755859 8.74731445 C345.94688758 10.76715773 343.9640619 12.83342197 342 14.9375 C329.84326395 27.88964749 329.84326395 27.88964749 321.1953125 28.734375 C319.5057526 28.77757866 317.81481303 28.78179842 316.125 28.75 C314.793479 28.72800537 314.793479 28.72800537 313.43505859 28.70556641 C305.79089267 28.36098119 301.40425611 26.51757116 296 21 C294.24218104 19.23112888 292.48330009 17.46331931 290.72412109 15.69580078 C289.52272014 14.47219278 288.33701243 13.23290354 287.17041016 11.97607422 C282.2262049 6.76430359 277.48032039 3.5312068 270.2890625 2.43359375 C259.37942047 2.4452245 252.50369557 4.36706191 244.625 12 C242.59003176 14.16494625 240.74819842 16.32810509 238.9375 18.6875 C236.39937685 21.71687279 233.47778604 24.10375935 230 26 C229.01 26 228.02 26 227 26 C227 26.66 227 27.32 227 28 C220.07 28 213.14 28 206 28 C206 27.34 206 26.68 206 26 C205.42765625 25.896875 204.8553125 25.79375 204.265625 25.6875 C198.00291459 23.78709132 193.05404221 18.23040876 188.9375 13.375 C184.71332181 8.42426316 180.19018885 5.06339628 174 3 C165.66867403 2.39714011 158.02391008 1.93011002 151 7 C150.154375 7.5775 149.30875 8.155 148.4375 8.75 C145.65962403 11.31419321 143.28492913 14.10460447 140.828125 16.97265625 C138.13757426 19.95640803 135.21862989 22.59666182 132 25 C131.30519531 25.53753906 130.61039063 26.07507813 129.89453125 26.62890625 C122.6379616 30.06622871 111.43282974 29.57055328 103.95703125 26.921875 C101.30006708 25.15946661 99.2325036 23.28299641 97 21 C95.25900781 19.23057915 93.51753548 17.46167942 91.77294922 15.69580078 C90.58235538 14.47416726 89.40941917 13.23497398 88.25830078 11.97607422 C83.1459841 6.55555232 77.80610651 3.60052823 70.41015625 2.43359375 C60.38331335 2.44529368 53.42489291 4.40238507 46.1875 11.5 C45.11510873 12.65758124 44.05171273 13.82359968 43 15 C39.50085179 18.58449329 35.93047065 21.8883774 32 25 C31.32582031 25.54011719 30.65164062 26.08023437 29.95703125 26.63671875 C25.5649108 28.66161972 21.45798947 28.31898346 16.6875 28.1875 C15.29047852 28.16719727 15.29047852 28.16719727 13.86523438 28.14648438 C11.57622354 28.11126882 9.28841542 28.06202099 7 28 C7 27.34 7 26.68 7 26 C6.401875 25.87625 5.80375 25.7525 5.1875 25.625 C3 25 3 25 0 23 C0 15.41 0 7.82 0 0 Z " fill="#F3EDE7" transform="translate(0,0)"/>
</svg>
